<svg id="SvgjsSvg1772" width="550" height="550" xmlns="http://www.w3.org/2000/svg" version="1.1" xmlns:xlink="http://www.w3.org/1999/xlink" xmlns:svgjs="http://svgjs.com/svgjs"><defs id="SvgjsDefs1773"></defs><g id="SvgjsG1774"><svg xmlns="http://www.w3.org/2000/svg" data-name="Layer 1" viewBox="0 0 175 175" width="550" height="550"><rect width="115.37" height="1.15" x="24.33" y="138.68" fill="#000000" class="color000 svgShape"></rect><path fill="#ffffff" d="M91.48,83.52c-1.11-1.06-1-1.75-1.69-2.4s-1.16-.62-3.28.46a5.66,5.66,0,0,0-2.12,1.82S84.61,80.87,86,80s3.06-2.76,2.38-4c-.41-.77-2.2,1.1-3,1.72-2.24,1.65-3.55,4.68-4.11,6.92s1.09,8.43-.15,12.84l7.18,3.42c.9-4.72,2.44-5.69,2.53-7.91.06-1.29-.67-1.8-.18-1.86.78-.09,2.46-1,2.62-2.09a7.78,7.78,0,0,0-.39-2.87A5.36,5.36,0,0,0,91.48,83.52Z" class="colorfff svgShape"></path><path d="M92.83,85.47a4,4,0,0,0-1.2-2.11,4.23,4.23,0,0,1-1-1.38,2.81,2.81,0,0,0-.72-1,1.56,1.56,0,0,0-1.08-.48,6.08,6.08,0,0,0-2.44.91,6.43,6.43,0,0,0-1.67,1.23,3.82,3.82,0,0,1,1.36-2.4c1.22-.74,3.25-2.83,2.46-4.34a.55.55,0,0,0-.5-.3c-.56,0-1.41.73-2.16,1.37-.26.22-.5.43-.7.57-2.76,2-3.91,5.91-4.19,7a16.11,16.11,0,0,0,.06,4.37c.23,2.62.51,5.89-.21,8.47a.21.21,0,0,0,.12.25l7.17,3.43a.26.26,0,0,0,.2,0,.21.21,0,0,0,.11-.15,19.63,19.63,0,0,1,1.68-5.1A7.28,7.28,0,0,0,91,93a3.58,3.58,0,0,0-.27-1.49l-.06-.16c.87-.12,2.58-1.08,2.77-2.27a7.8,7.8,0,0,0-.42-3C93,85.88,92.89,85.68,92.83,85.47ZM93,89c-.15,1-1.71,1.83-2.43,1.91a.42.42,0,0,0-.32.18c-.1.16,0,.34.06.57A3,3,0,0,1,90.56,93a6.79,6.79,0,0,1-.82,2.68,20.34,20.34,0,0,0-1.65,4.93l-6.76-3.23c.68-2.63.4-5.85.17-8.45a16.36,16.36,0,0,1-.07-4.22c.28-1.1,1.38-4.85,4-6.8.2-.14.45-.36.73-.59.58-.51,1.47-1.26,1.87-1.26a.11.11,0,0,1,.12.06c.57,1.1-1,3-2.3,3.76s-1.69,3.43-1.7,3.54a.21.21,0,0,0,.14.22.22.22,0,0,0,.26-.09,5.47,5.47,0,0,1,2-1.73,5.93,5.93,0,0,1,2.24-.87,1.15,1.15,0,0,1,.8.38,2.63,2.63,0,0,1,.61.88,4.71,4.71,0,0,0,1.07,1.51,3.63,3.63,0,0,1,1.08,1.91,6,6,0,0,0,.22.64A7.52,7.52,0,0,1,93,89Z" fill="#000000" class="color000 svgShape"></path><path d="M90.87,82.85a.23.23,0,0,0-.14.27c0,.08.55,1.84-2.17,3.23-.88.46-1.52.53-1.8.22s-.21-1.31.27-2c.14-.23.66-.93,1.26-.73a.22.22,0,1,0,.14-.42c-.62-.19-1.27.15-1.76.91s-.78,2-.23,2.58a1.05,1.05,0,0,0,.83.33,3.34,3.34,0,0,0,1.49-.45c3.07-1.57,2.42-3.66,2.39-3.75A.22.22,0,0,0,90.87,82.85Z" fill="#000000" class="color000 svgShape"></path><path d="M92.55 85.33a.21.21 0 00-.14.27c0 .08.55 1.84-2.17 3.24-1.08.55-1.84.67-2.21.36s-.29-1.6-.16-2a.22.22 0 00-.15-.27.21.21 0 00-.27.14c0 .08-.53 1.8.3 2.49a1.21 1.21 0 00.82.27 4.42 4.42 0 001.87-.59c3.06-1.57 2.41-3.66 2.38-3.75A.21.21 0 0092.55 85.33zM72.43 109.77S69.73 98.17 61.34 90l-7 29.08a75.42 75.42 0 0014.39 6.12c5.79 1.73 13.41 3.42 18.43-8.73 1.86-4.5 4.72-14.27 4.72-14.27-1.71-.08-11.63-4.81-11.63-4.81z" fill="#000000" class="color000 svgShape"></path><path d="M91.85,102c-1.32-.06-8.13-3.15-11.55-4.78a.21.21,0,0,0-.28.08l-7.5,12c-.64-2.31-3.67-12.21-11-19.4l-.31.31c8.25,8.05,11,19.57,11,19.69a.21.21,0,0,0,.18.16.2.2,0,0,0,.21-.1l7.68-12.24c1.32.63,9.13,4.31,11.27,4.71-.46,1.54-3,10-4.64,14-5.17,12.49-13.31,10.06-18.17,8.61a76.29,76.29,0,0,1-14.34-6.11l-.22.38a76.19,76.19,0,0,0,14.44,6.14,23.6,23.6,0,0,0,6.67,1.2c4.43,0,8.76-2.17,12-10,1.84-4.46,4.7-14.2,4.73-14.3a.21.21,0,0,0,0-.19A.2.2,0,0,0,91.85,102Z" fill="#000000" class="color000 svgShape"></path><path fill="#ffffff" d="M81,93.72l-5.57,6.72c3.86,5,14.48,6.68,14.48,6.68l.55-3.24.71,3.28a15.6,15.6,0,0,0,2.85.26l-2.06-9.73A46.79,46.79,0,0,1,81,93.72Z" class="colorfff svgShape"></path><path d="M92,97.48a46.54,46.54,0,0,1-10.91-4,.23.23,0,0,0-.27.06l-5.57,6.72a.23.23,0,0,0,0,.28c3.87,5.06,14.18,6.69,14.62,6.76a.22.22,0,0,0,.25-.18l.36-2.13.47,2.17a.23.23,0,0,0,.16.17,15,15,0,0,0,2.89.27h0a.21.21,0,0,0,.17-.08.22.22,0,0,0,0-.19l-2-9.72A.23.23,0,0,0,92,97.48Zm-.65,9.5-.68-3.14a.21.21,0,0,0-.22-.17.21.21,0,0,0-.21.18l-.52,3c-1.49-.26-10.47-2-14-6.42L81,94a47.22,47.22,0,0,0,10.73,3.89l2,9.32A14.27,14.27,0,0,1,91.33,107Z" fill="#000000" class="color000 svgShape"></path><path fill="#315481" d="M90.44,101.56a.63.63,0,0,0-.11,1.25.63.63,0,0,0,.11-1.25Z" class="color315481 svgShape"></path><path d="M90.47,101.35a.84.84,0,1,0-.16,1.67h.08a.84.84,0,0,0,.65-1.38A.79.79,0,0,0,90.47,101.35Zm-.08,1.24h0a.41.41,0,0,1,.07-.81h0a.42.42,0,0,1,.27.14.41.41,0,0,1,.09.3A.4.4,0,0,1,90.39,102.59Z" fill="#000000" class="color000 svgShape"></path><path fill="#ffffff" d="M87,81.52c.32-2.06-2.28-3.25-2.71-3s.74,2.26.52,3.08-.73,4.93-.73,4.93l3.68,6.35C90.52,87.77,86.33,85.88,87,81.52Z" class="colorfff svgShape"></path><path d="M87.22,81.56a2.87,2.87,0,0,0-1.41-2.77c-.57-.37-1.3-.64-1.62-.44s-.17.81.1,1.61a4,4,0,0,1,.32,1.6c-.22.83-.72,4.79-.74,5a.23.23,0,0,0,.19.25.21.21,0,0,0,.24-.19s.52-4.11.73-4.91a3.86,3.86,0,0,0-.33-1.85,4.41,4.41,0,0,1-.29-1.09,2.71,2.71,0,0,1,2.38,2.76,8.32,8.32,0,0,0,.85,4.68c.77,1.91,1.5,3.72-.06,6.63a.22.22,0,0,0,.09.3l.1,0A.21.21,0,0,0,88,93c1.66-3.09.86-5.08.08-7A7.92,7.92,0,0,1,87.22,81.56Z" fill="#000000" class="color000 svgShape"></path><path fill="#f26a6b" d="M62,79.8a38.73,38.73,0,0,0-10.59,0C45.5,80.72,38.31,84,35.08,89c-8.91,13.85-7.75,34.2-8.24,49.66H83c-.41-17.71-.45-30.45-6-44.77C74.72,88.21,69.92,81,62,79.8Z" class="colorf26a6b svgShape"></path><path d="M77.14,93.82c-1.5-3.84-6-12.91-15.08-14.23a40.45,40.45,0,0,0-5.75-.4,31,31,0,0,0-4.92.35c-5.83.95-13.19,4.21-16.49,9.35-7.65,11.89-7.91,28.29-8.13,42.75,0,2.45-.08,4.77-.15,7a.23.23,0,0,0,.06.16.26.26,0,0,0,.16.07H83a.24.24,0,0,0,.16-.07.23.23,0,0,0,.06-.16l-.05-2.46C82.74,119.54,82.47,107.5,77.14,93.82ZM27.07,138.45c.06-2.18.1-4.43.13-6.8.23-14.41.48-30.74,8.06-42.53,3.23-5,10.47-8.21,16.2-9.15a31.4,31.4,0,0,1,4.85-.34A40.87,40.87,0,0,1,62,80c8.9,1.29,13.27,10.19,14.74,14,5.31,13.61,5.58,25.62,6,42.23l0,2.24Z" fill="#000000" class="color000 svgShape"></path><path fill="#ffffff" d="M51.73,79.74s7.92,19.86,9.78,23.47c0,0,1.33-19.67.32-23.51C61.83,79.7,55.61,78.44,51.73,79.74Z" class="colorfff svgShape"></path><path d="M61.87,79.49a31.91,31.91,0,0,0-5.71-.56,14.37,14.37,0,0,0-4.5.6.22.22,0,0,0-.13.12.25.25,0,0,0,0,.17c.08.2,7.95,19.91,9.78,23.49a.24.24,0,0,0,.2.12h0a.25.25,0,0,0,.18-.2c.05-.81,1.32-19.76.31-23.59A.2.2,0,0,0,61.87,79.49Zm-.53,22.89c-2.18-4.65-8.5-20.46-9.32-22.51a14.78,14.78,0,0,1,4.14-.5,32.23,32.23,0,0,1,5.49.52C62.47,83.46,61.58,98.66,61.34,102.38Z" fill="#000000" class="color000 svgShape"></path><path fill="#ffffff" d="M58.25,54.3c-1.56.35-9.3,1.75-9.59,9.33,0,1,2.44,5.9,2.62,7.15a51.24,51.24,0,0,1,.45,9c6,3,10.1,0,10.1,0a22.57,22.57,0,0,1,.36-4.09c3.34,1.08,5.87-1.58,6.64-3.71,1.49-4.13-.38-10.12-.8-12.74C67.2,53.9,61.86,53.48,58.25,54.3Z" class="colorfff svgShape"></path><path d="M58.2,54.09l-.51.11c-5.87,1.32-9.06,4.58-9.25,9.42a16.11,16.11,0,0,0,1.38,3.91,22.06,22.06,0,0,1,1.24,3.28,50.87,50.87,0,0,1,.45,8.94.22.22,0,0,0,.12.18A11.78,11.78,0,0,0,57,81.3a8.71,8.71,0,0,0,5-1.43.21.21,0,0,0,.08-.22,20.16,20.16,0,0,1,.52-3.71,5,5,0,0,0,2.2,0A6.35,6.35,0,0,0,69,72c1.21-3.37.24-7.93-.41-11-.16-.75-.3-1.39-.38-1.91A5.86,5.86,0,0,0,65.78,55C64,53.77,61.13,53.43,58.2,54.09Zm9.62,5.1c.08.53.22,1.18.39,1.93.63,3,1.59,7.46.42,10.71a5.89,5.89,0,0,1-4,3.7,3.9,3.9,0,0,1-2.24-.07.2.2,0,0,0-.23.06.2.2,0,0,0,0,.22c0,.07-.75,3.05-.58,3.86A8.52,8.52,0,0,1,57,80.86a11.31,11.31,0,0,1-5-1.26,62.34,62.34,0,0,0-.45-8.85,21.83,21.83,0,0,0-1.26-3.39,18.25,18.25,0,0,1-1.35-3.72c.17-4.62,3.25-7.74,8.91-9l.51-.11c2.81-.63,5.52-.32,7.23.85A5.43,5.43,0,0,1,67.82,59.19Z" fill="#000000" class="color000 svgShape"></path><path d="M58.46,49C46.38,47.78,46.9,56.62,46.9,56.62c-5.84,8.23,5,17.24,5,17.24a10.23,10.23,0,0,0,.32-3.78c-.22-.6-4.35-5-1-7.08a2.74,2.74,0,0,1,3.17,0,24.25,24.25,0,0,0-.34-4.46c7.15,3,18.21-3,18.21-3C68.32,41.72,58.46,49,58.46,49Z" fill="#000000" class="color000 svgShape"></path><path d="M62.26,47.11a11.53,11.53,0,0,0-3.86,1.7A17.14,17.14,0,0,0,53,49a7.59,7.59,0,0,0-6.32,7.53c-5.8,8.28,5,17.39,5.08,17.48a.25.25,0,0,0,.19,0h0a.21.21,0,0,0,.14-.15A10.19,10.19,0,0,0,52.42,70a3.42,3.42,0,0,0-.43-.68c-.75-1.06-2.13-3-1.8-4.61a2.3,2.3,0,0,1,1.17-1.54,2.51,2.51,0,0,1,2.92,0,.24.24,0,0,0,.23,0,.22.22,0,0,0,.12-.19,25.14,25.14,0,0,0-.28-4.12c2.44.92,5.54,1,9.2.15a39.15,39.15,0,0,0,8.84-3.28.21.21,0,0,0,.1-.25C70.11,47.21,65.61,46.35,62.26,47.11Zm1.2,11.55c-3.76.85-6.89.76-9.3-.27a.22.22,0,0,0-.22,0,.21.21,0,0,0-.08.21,24.9,24.9,0,0,1,.33,4,3,3,0,0,0-3.06.15,2.75,2.75,0,0,0-1.36,1.82c-.37,1.78,1.08,3.84,1.86,5a5.17,5.17,0,0,1,.38.58,9.3,9.3,0,0,1-.24,3.3C50.15,72,41.94,64,47.07,56.75a.18.18,0,0,0,0-.14,7.16,7.16,0,0,1,6-7.16,16.78,16.78,0,0,1,5.34-.2.23.23,0,0,0,.16,0,11.23,11.23,0,0,1,3.77-1.68c3.14-.71,7.36.11,9.66,8A38.61,38.61,0,0,1,63.46,58.66Z" fill="#000000" class="color000 svgShape"></path><path d="M58.4 60.49l-.08 0a3.3 3.3 0 00-2.17 4 3.9 3.9 0 001.31 2.28 2.75 2.75 0 002.28.63h.08a3.3 3.3 0 002.17-4 3.9 3.9 0 00-1.31-2.28A2.75 2.75 0 0058.4 60.49zM59.72 67h-.07a2.28 2.28 0 01-1.91-.54 3.44 3.44 0 01-1.16-2 2.9 2.9 0 011.84-3.51l.07 0a2.32 2.32 0 011.91.55 3.44 3.44 0 011.16 2A2.9 2.9 0 0159.72 67zM66.44 59l-.08 0a3.28 3.28 0 00-2.17 4 3.88 3.88 0 001.3 2.28 2.75 2.75 0 002.28.63l.08 0A3.6 3.6 0 0066.44 59zm1.31 6.51h-.06a2.29 2.29 0 01-1.92-.54 3.46 3.46 0 01-1.16-2 2.91 2.91 0 011.84-3.51h.07A2.87 2.87 0 0169.59 62 2.9 2.9 0 0167.75 65.46z" fill="#000000" class="color000 svgShape"></path><path d="M61.41 62.47a.22.22 0 000 .31.22.22 0 00.31 0 1.81 1.81 0 012.48-.49.23.23 0 00.17 0 .22.22 0 00.14-.09.22.22 0 00-.06-.3A2.25 2.25 0 0061.41 62.47zM66.41 69.65s-1 1.41-4.4.83a.22.22 0 00-.25.17.21.21 0 00.18.25 7.6 7.6 0 003 0 3.05 3.05 0 001.84-1 .22.22 0 00-.36-.25zM59.93 62.17a2.85 2.85 0 00-2.47 1 .22.22 0 000 .31.29.29 0 00.18 0 .22.22 0 00.13-.08 2.47 2.47 0 012.07-.81.22.22 0 00.24-.2A.21.21 0 0059.93 62.17zM65 61a.22.22 0 00-.07.3.21.21 0 00.3.08 2.46 2.46 0 012.22-.16.26.26 0 00.15 0 .19.19 0 00.14-.11.21.21 0 00-.08-.29A2.91 2.91 0 0065 61zM66.21 62.37a.65.65 0 10.6.51C66.74 62.54 66.47 62.31 66.21 62.37z" fill="#000000" class="color000 svgShape"></path><path d="M66.16 62.16a.78.78 0 00-.5 1 .79.79 0 00.87.67.86.86 0 00-.37-1.65zm.28 1.22c-.13 0-.3-.1-.35-.34s0-.43.16-.46.3.11.35.34S66.56 63.36 66.44 63.38zM58.82 64a.57.57 0 00-.33.72c.08.34.35.57.61.51a.57.57 0 00.33-.72C59.35 64.2 59.08 64 58.82 64z" fill="#000000" class="color000 svgShape"></path><path d="M58.77 63.82a.86.86 0 00.38 1.65.86.86 0 00-.38-1.65zm.28 1.23c-.12 0-.29-.11-.35-.35s0-.43.17-.46.29.11.35.35S59.17 65 59.05 65.05zM64.24 65.52c-.44 0-.87.32-1.29 1a.22.22 0 00.07.3.17.17 0 00.17 0 .2.2 0 00.13-.09c.32-.51.64-.77.92-.77a.72.72 0 01.52.35.22.22 0 00.38-.22A1.18 1.18 0 0064.24 65.52zM62.41 75.45c-.06 0-6.43-1.13-7.15-4.34A.22.22 0 0055 71a.22.22 0 00-.17.26c.79 3.49 7.23 4.62 7.51 4.66h.08a.23.23 0 00.17-.17A.22.22 0 0062.41 75.45zM61.72 103.15a.22.22 0 00-.27-.15.22.22 0 00-.15.27l1.19 4.14a18.26 18.26 0 01.71 5v24.09a.22.22 0 00.44 0V112.45a18.75 18.75 0 00-.73-5.16z" fill="#000000" class="color000 svgShape"></path><path fill="#5b53a3" d="M61.09,115.15a1.15,1.15,0,1,0,1.15,1.15A1.15,1.15,0,0,0,61.09,115.15Z" class="color5b53a3 svgShape"></path><path d="M61.09,114.86a1.44,1.44,0,1,0,1.44,1.44A1.44,1.44,0,0,0,61.09,114.86Zm0,2.3a.86.86,0,1,1,.86-.86A.86.86,0,0,1,61.09,117.16Z" fill="#000000" class="color000 svgShape"></path><path fill="#5b53a3" d="M61.09,128.58a1.15,1.15,0,1,0,1.15,1.15A1.14,1.14,0,0,0,61.09,128.58Z" class="color5b53a3 svgShape"></path><path d="M61.09,128.29a1.44,1.44,0,1,0,1.44,1.44A1.43,1.43,0,0,0,61.09,128.29Zm0,2.29a.86.86,0,1,1,.86-.85A.85.85,0,0,1,61.09,130.58Z" fill="#000000" class="color000 svgShape"></path><path fill="#ffffff" d="M92.34,95.75a1.55,1.55,0,0,0-2,.24L70.24,117.1a1.56,1.56,0,0,0,.28,2.38l17,11.06a1.55,1.55,0,0,0,2-.23l21-20.55a1.55,1.55,0,0,0-.27-2.37Z" class="colorfff svgShape"></path><path d="M92.46,95.57a1.82,1.82,0,0,0-2.25.27L70.08,117a1.75,1.75,0,0,0-.47,1.43,1.78,1.78,0,0,0,.79,1.28l17,11.07a1.82,1.82,0,0,0,1.29.25,1.77,1.77,0,0,0,1-.51l21-20.56a1.76,1.76,0,0,0-.32-2.7Zm17.92,14-21,20.55a1.25,1.25,0,0,1-.72.39,1.33,1.33,0,0,1-1-.19l-17-11.07a1.29,1.29,0,0,1-.6-1,1.31,1.31,0,0,1,.36-1.08L90.53,96.14a1.3,1.3,0,0,1,1.69-.2l17.92,11.63a1.35,1.35,0,0,1,.24,2Z" fill="#000000" class="color000 svgShape"></path><path fill="#94c0e7" d="M92.77,97a1.54,1.54,0,0,0-2,.23L70.68,118.31a1.55,1.55,0,0,0,.27,2.37l17,11.07a1.54,1.54,0,0,0,2-.24l20.13-21.11a1.56,1.56,0,0,0-.27-2.38Z" class="color94c0e7 svgShape"></path><path d="M92.89,96.78a1.79,1.79,0,0,0-2.24.26L70.52,118.16a1.74,1.74,0,0,0-.48,1.42,1.76,1.76,0,0,0,.79,1.28l17,11.07a1.7,1.7,0,0,0,1.28.25,1.66,1.66,0,0,0,1-.52l20.13-21.11a1.81,1.81,0,0,0,.48-1.43,1.76,1.76,0,0,0-.8-1.28Zm17,13.47L89.81,131.36a1.39,1.39,0,0,1-.73.4,1.34,1.34,0,0,1-1-.2l-17-11.06a1.33,1.33,0,0,1-.24-2L91,97.34a1.34,1.34,0,0,1,1.69-.2l17,11.07a1.35,1.35,0,0,1,.6,1A1.38,1.38,0,0,1,109.94,110.25Z" fill="#000000" class="color000 svgShape"></path><path fill="#ffffff" d="M104.23,106.92a1.18,1.18,0,0,0-1.5.17l-2.5,2.62a1.19,1.19,0,0,0,.21,1.81l3,2a1.18,1.18,0,0,0,1.5-.18l2.5-2.62a1.18,1.18,0,0,0-.21-1.8Z" class="colorfff svgShape"></path><path d="M104.34,106.73a1.44,1.44,0,0,0-1.77.21l-2.5,2.62a1.37,1.37,0,0,0-.37,1.13,1.4,1.4,0,0,0,.62,1l3,2a1.4,1.4,0,0,0,1.77-.21l2.5-2.61a1.43,1.43,0,0,0,.37-1.13,1.39,1.39,0,0,0-.63-1Zm3,3.8-2.49,2.62a1,1,0,0,1-.53.29,1,1,0,0,1-.7-.14l-3-2a.94.94,0,0,1-.43-.69,1,1,0,0,1,.26-.78l2.49-2.62a1,1,0,0,1,.53-.28.92.92,0,0,1,.7.14l3,2a1,1,0,0,1,.17,1.47Z" fill="#000000" class="color000 svgShape"></path><path fill="#ffffff" d="M103.81,107.92a.8.8,0,1,0,.93.64A.8.8,0,0,0,103.81,107.92Z" class="colorfff svgShape"></path><path d="M103.77 107.7a1 1 0 101.19.82A1 1 0 00103.77 107.7zm.29 1.58a.58.58 0 11.47-.68A.58.58 0 01104.06 109.28zM104.06 111a.34.34 0 10.12.67.34.34 0 00-.12-.67z" fill="#000000" class="color000 svgShape"></path><path d="M104 110.77a.55.55 0 10.65.45A.56.56 0 00104 110.77zm0 .57a.12.12 0 01.1-.14.12.12 0 01.14.09C104.26 111.42 104 111.47 104 111.34zM105 109.89a.34.34 0 00.12.67.33.33 0 00.27-.4A.34.34 0 00105 109.89z" fill="#000000" class="color000 svgShape"></path><path d="M105,109.68a.55.55,0,1,0,.65.44A.56.56,0,0,0,105,109.68Zm0,.57a.12.12,0,0,1,.1-.14.12.12,0,0,1,.14.09C105.23,110.33,105,110.38,105,110.25Z" fill="#000000" class="color000 svgShape"></path><path fill="#ffffff" d="M102.24,109.69a.8.8,0,1,0,.93.64A.8.8,0,0,0,102.24,109.69Z" class="colorfff svgShape"></path><path d="M102.2,109.47a1,1,0,0,0,.37,2,1,1,0,1,0-.37-2Zm.29,1.57a.59.59,0,0,1-.68-.46.6.6,0,0,1,.47-.68.58.58,0,0,1,.68.47A.57.57,0,0,1,102.49,111Z" fill="#000000" class="color000 svgShape"></path><path fill="#ffffff" d="M86,114.1c-1.17-.25-14,.65-14,.65s-.9-1.38.66-3.2,1-4.14,0-3.24a39.92,39.92,0,0,0-4.73,4.8,25.85,25.85,0,0,1-3.2,4.16c-1.19,1.26-12.84,0-12.84,0l-1.36,11.37c.23-.27,19.18-3.09,22.43-2.56,1.94.32,3.27-.61,5.35-1.64s1.45-2.31,1.45-2.31a2.49,2.49,0,0,0,1.34-2.46c2-2.29.59-2.66.59-2.66a14.11,14.11,0,0,0,4.41-1.14C87.3,115.14,86.68,114.26,86,114.1Z" class="colorfff svgShape"></path><path d="M86,113.89a5.53,5.53,0,0,0-1,0c-3,0-11.74.6-13,.68a2.59,2.59,0,0,1,.7-2.83,3.54,3.54,0,0,0,.89-3.35.67.67,0,0,0-1.16-.19l-.46.42A33.79,33.79,0,0,0,67.74,113l-.16.23a24.56,24.56,0,0,1-3,3.9c-.17.18-.86.49-3.61.49-3.75,0-9-.58-9.05-.59a.23.23,0,0,0-.24.19L50.3,128.59a.22.22,0,0,0,.13.22l.09,0a.19.19,0,0,0,.12,0c.7-.26,16-2.59,21.16-2.59a7.85,7.85,0,0,1,1.12.06,4.29,4.29,0,0,0,.79.07,8.15,8.15,0,0,0,3.81-1.28l.88-.45c1.74-.87,1.71-1.95,1.61-2.39a2.71,2.71,0,0,0,1.3-2.49c.84-1,1.18-1.8,1-2.37a1,1,0,0,0-.1-.21,14.2,14.2,0,0,0,4-1.11c.78-.45.82-1,.78-1.22A1.2,1.2,0,0,0,86,113.89Zm0,1.76a13.87,13.87,0,0,1-4.32,1.12.2.2,0,0,0-.19.19.21.21,0,0,0,.16.23.44.44,0,0,1,.27.29c.08.24,0,.82-1,2a.22.22,0,0,0,0,.17,2.29,2.29,0,0,1-1.22,2.24.22.22,0,0,0-.1.29s.49,1.09-1.35,2l-.88.45a7.88,7.88,0,0,1-3.61,1.24,4.5,4.5,0,0,1-.72-.07,9,9,0,0,0-1.19-.06,176.33,176.33,0,0,0-21,2.55l1.3-10.84c1,.11,5.54.56,8.88.56,3,0,3.68-.35,3.93-.62a25.28,25.28,0,0,0,3.06-4l.16-.24a33.33,33.33,0,0,1,4.25-4.34l.45-.42a.47.47,0,0,1,.27-.14c.1,0,.16.1.2.19a3.1,3.1,0,0,1-.82,2.88c-1.66,1.93-.72,3.41-.68,3.47a.22.22,0,0,0,.2.1c.09,0,9.88-.7,13.07-.7a6.64,6.64,0,0,1,.88,0,.81.81,0,0,1,.63.57C86.59,115.14,86.39,115.41,86,115.65Z" fill="#000000" class="color000 svgShape"></path><path d="M81.18 119.18s-1.44 1-4.9 0a.22.22 0 00-.26.15.21.21 0 00.14.27 10.41 10.41 0 002.89.45 4 4 0 002.39-.57.21.21 0 000-.3A.22.22 0 0081.18 119.18zM81.73 116.76a28.58 28.58 0 01-5.08.13.23.23 0 00-.22.22.21.21 0 00.21.22l1.86 0a19.61 19.61 0 003.31-.17.22.22 0 00.17-.26A.21.21 0 0081.73 116.76zM80.07 121.65a10.54 10.54 0 01-5 .73.22.22 0 00-.23.21.21.21 0 00.21.22c.27 0 .54 0 .79 0a10.23 10.23 0 004.41-.79.22.22 0 00.08-.3A.22.22 0 0080.07 121.65z" fill="#000000" class="color000 svgShape"></path><path fill="#f26a6b" d="M46.53,114.74a65.8,65.8,0,0,0,2-23.57L31.1,101.45a76.15,76.15,0,0,0-.25,15.64c.59,6,1.9,13.7,15,13.77,4.87,0,15-1,15-1-.57-1.61.06-12.58.06-12.58Z" class="colorf26a6b svgShape"></path><path d="M61,117.05l-14.18-2.48c.47-1.71,3.25-12.47,1.92-23.43l-.43,0c1.43,11.81-1.94,23.37-2,23.49a.29.29,0,0,0,0,.18.27.27,0,0,0,.15.1l14.23,2.49c-.09,1.45-.54,10.08-.11,12.21-1.58.16-10.13,1-14.55,1h-.18c-13.51-.06-14.33-8.52-14.82-13.57a76.06,76.06,0,0,1,.24-15.59l-.43,0a76,76,0,0,0-.24,15.68c.65,6.72,2.42,13.9,15.25,14h.18c4.88,0,14.75-1,14.85-1a.27.27,0,0,0,.16-.1.25.25,0,0,0,0-.19c-.45-1.24-.15-8.72.07-12.5A.22.22,0,0,0,61,117.05Z" fill="#000000" class="color000 svgShape"></path><path fill="#ffffff" d="M64.62,116.59,56.29,114c-3.22,5.49-.73,15.94-.73,15.94l3.21-.71L56,131.09a15.23,15.23,0,0,0,.83,2.73l8.23-5.57A46.32,46.32,0,0,1,64.62,116.59Z" class="colorfff svgShape"></path><path d="M64.84,116.62a.22.22,0,0,0-.16-.23l-8.33-2.62a.21.21,0,0,0-.25.09c-3.23,5.5-.85,15.67-.75,16.1a.23.23,0,0,0,.26.16l2.11-.47-1.83,1.26a.2.2,0,0,0-.09.21,13.86,13.86,0,0,0,.84,2.78.22.22,0,0,0,.14.13h.06a.17.17,0,0,0,.12,0l8.23-5.57a.22.22,0,0,0,.1-.22A46.37,46.37,0,0,1,64.84,116.62Zm0,11.53-7.89,5.34a14.65,14.65,0,0,1-.69-2.3l2.65-1.81a.23.23,0,0,0,.07-.27.21.21,0,0,0-.24-.13l-3,.67c-.32-1.48-2.11-10.46.66-15.42l8,2.52A47.41,47.41,0,0,0,64.83,128.15Z" fill="#000000" class="color000 svgShape"></path><path fill="#5b53a3" d="M60.15,127.91a.63.63,0,1,0,.78.42A.63.63,0,0,0,60.15,127.91Z" class="color5b53a3 svgShape"></path><path d="M60.06 127.64a.91.91 0 00-.54.44 1 1 0 00-.07.7.91.91 0 00.88.65 1.26 1.26 0 00.27 0 .92.92 0 10-.54-1.75zm.37 1.19a.34.34 0 01-.4-.48.45.45 0 01.2-.16h.1a.32.32 0 01.32.23A.34.34 0 0160.43 128.83zM52.86 63.54a1.64 1.64 0 00-1.76.85 2.47 2.47 0 00.76 3 .22.22 0 00.19 0 .19.19 0 00.12-.07.22.22 0 000-.31s-1.39-1.19-.66-2.46A1.21 1.21 0 0152.79 64a1.7 1.7 0 011.39 1.25.22.22 0 00.26.17h0a.22.22 0 00.16-.26A2.13 2.13 0 0052.86 63.54z" fill="#000000" class="color000 svgShape"></path><path d="M53,63.68a1.4,1.4,0,0,0-.72,1,1.62,1.62,0,0,0,.41,1.16.2.2,0,0,0,.21.06.12.12,0,0,0,.09,0,.22.22,0,0,0,0-.31,1.08,1.08,0,0,1-.29-.8,1,1,0,0,1,.52-.69.22.22,0,1,0-.24-.36Z" fill="#000000" class="color000 svgShape"></path><rect width="24.96" height="24.96" x="84.72" y="35.44" fill="#f18221" class="colorf18221 svgShape"></rect><path d="M110,60.67H84.44V35.17H110Zm-25-.54h24.42V35.71H85Z" fill="#000000" class="color000 svgShape"></path><rect width="24.96" height="24.96" x="125.44" y="35.44" fill="#f18221" class="colorf18221 svgShape"></rect><path d="M150.67,60.67H125.16V35.17h25.51Zm-25-.54h24.41V35.71H125.71Z" fill="#000000" class="color000 svgShape"></path><rect width="24.96" height="24.96" x="125.44" y="85.38" fill="#f18221" class="colorf18221 svgShape"></rect><path d="M150.67,110.61H125.16V85.11h25.51Zm-25-.54h24.41V85.65H125.71Z" fill="#000000" class="color000 svgShape"></path><rect width=".54" height="34.26" x="99.63" y="64.81" fill="#000000" class="color000 svgShape"></rect><rect width="9.66" height=".54" x="112.79" y="47.41" fill="#000000" class="color000 svgShape"></rect><rect width=".54" height="17.59" x="137.65" y="64.6" fill="#000000" class="color000 svgShape"></rect><path d="M147.3 99.55a2.7 2.7 0 00-1.06.21 1.55 1.55 0 00-.62.58 2.91 2.91 0 00-.36 1 13.32 13.32 0 00-.08 1.61 14.14 14.14 0 01-.16 2.62 2.48 2.48 0 01-.63 1.19 3.09 3.09 0 01-1.33.71 7.46 7.46 0 01-1.86.17h-.51v-2.32a4.25 4.25 0 001.35-.13.89.89 0 00.47-.37 1.85 1.85 0 00.16-.84c0-.39 0-1.14.08-2.25a5.8 5.8 0 01.26-1.61 3.32 3.32 0 01.56-1 3.38 3.38 0 01.91-.74 3.89 3.89 0 01-1-.91 3.81 3.81 0 01-.62-1.63 27.88 27.88 0 01-.16-3 2.5 2.5 0 00-.13-1 .8.8 0 00-.43-.37 4.54 4.54 0 00-1.41-.13V89.1h.51a7.78 7.78 0 012 .2 2.57 2.57 0 011.17.7 2.52 2.52 0 01.65 1.19 10.33 10.33 0 01.16 2.24 10.91 10.91 0 00.15 2.31 2.07 2.07 0 00.65 1.11 2.38 2.38 0 001.32.38zM128.53 97.23a2.35 2.35 0 001.32-.38 2 2 0 00.65-1.11 10.91 10.91 0 00.15-2.31 10.18 10.18 0 01.17-2.24 2.51 2.51 0 01.64-1.19 2.68 2.68 0 011.17-.7 7.78 7.78 0 012-.2h.51v2.31a4.54 4.54 0 00-1.41.13.84.84 0 00-.43.37 2.72 2.72 0 00-.13 1 28.94 28.94 0 01-.15 3 3.94 3.94 0 01-.62 1.63 4.12 4.12 0 01-1.05.91 3.38 3.38 0 01.91.74 3.32 3.32 0 01.56 1 5.45 5.45 0 01.26 1.61q.07 1.67.09 2.25a1.74 1.74 0 00.15.84.93.93 0 00.47.37 4.25 4.25 0 001.35.13v2.32h-.51a7.57 7.57 0 01-1.86-.17 3.09 3.09 0 01-1.33-.71 2.39 2.39 0 01-.62-1.19 13.08 13.08 0 01-.17-2.62 11.48 11.48 0 00-.08-1.61 2.91 2.91 0 00-.36-1 1.6 1.6 0 00-.61-.58 2.75 2.75 0 00-1.07-.21zM135.26 51.88l-7-3.06V47.13l7-3v2L130.36 48l4.9 1.94zM135.91 53.22l2.53-10.59h1.48l-2.57 10.59zM140.57 51.88v-2l4.9-1.93-4.9-1.91v-2l7 3v1.67zM99.37 56.49l2.48-1.1-.55-1.62A6.91 6.91 0 00102.94 52l1.65.48 1-2.52L104 49.24a6.81 6.81 0 000-2.38l1.51-.82-1.1-2.49-1.63.56A6.7 6.7 0 00101 42.47l.48-1.65-2.53-1-.75 1.54a6.81 6.81 0 00-2.38.06L95 39.93 92.54 41l.56 1.62a6.9 6.9 0 00-1.65 1.72l-1.64-.48-1 2.53 1.54.76a7.06 7.06 0 000 2.38l-1.5.82L90 52.86l1.62-.55A6.87 6.87 0 0093.36 54l-.48 1.65 2.53 1L96.16 55A7.06 7.06 0 0098.54 55zm-6.65-6.3a4.9 4.9 0 116.46 2.5A4.9 4.9 0 0192.72 50.19z" fill="#000000" class="color000 svgShape"></path></svg></g></svg>