<svg id="SvgjsSvg1001" width="550" height="550" xmlns="http://www.w3.org/2000/svg" version="1.1" xmlns:xlink="http://www.w3.org/1999/xlink" xmlns:svgjs="http://svgjs.com/svgjs"><defs id="SvgjsDefs1002"></defs><g id="SvgjsG1008"><svg xmlns="http://www.w3.org/2000/svg" viewBox="0 0 1100 1100" width="550" height="550"><defs><linearGradient id="a" x1="692.468" x2="839.951" y1="577.543" y2="515.995" gradientTransform="rotate(-15.05 588.11 486.054)" gradientUnits="userSpaceOnUse"><stop offset="0" stop-color="#dae0f5" class="stopColordae0f5 svgShape"></stop><stop offset=".351" stop-color="#e3e7f7" class="stopColore3e7f7 svgShape"></stop><stop offset=".919" stop-color="#fbfcfe" class="stopColorfbfcfe svgShape"></stop><stop offset="1" stop-color="#ffffff" class="stopColorfff svgShape"></stop></linearGradient><linearGradient id="b" x1="554.012" x2="579.947" y1="658.224" y2="488.292" gradientUnits="userSpaceOnUse"><stop offset="0" stop-color="#c4cae9" class="stopColorc4cae9 svgShape"></stop><stop offset=".124" stop-color="#cfd4ed" class="stopColorcfd4ed svgShape"></stop><stop offset=".43" stop-color="#e5e7f5" class="stopColore5e7f5 svgShape"></stop><stop offset=".727" stop-color="#f2f2f9" class="stopColorf2f2f9 svgShape"></stop><stop offset="1" stop-color="#f6f6fb" class="stopColorf6f6fb svgShape"></stop></linearGradient><linearGradient id="c" x1="581.384" x2="500.096" y1="725.371" y2="874.786" gradientUnits="userSpaceOnUse"><stop offset="0" stop-color="#20196f" class="stopColor20196f svgShape"></stop><stop offset=".332" stop-color="#2c2483" class="stopColor2c2483 svgShape"></stop><stop offset=".679" stop-color="#332b90" class="stopColor332b90 svgShape"></stop><stop offset="1" stop-color="#362e94" class="stopColor362e94 svgShape"></stop></linearGradient></defs><g data-name="Secondary shapes" fill="#000000" class="color000 svgShape"><ellipse cx="677.702" cy="1036.24" rx="231.641" ry="20.112" style="mix-blend-mode:multiply" fill="#e7eeff" class="colore7eeff svgShape"></ellipse><path fill="#807dfb" d="M593.501,604.02882c13.93856-19.95089,31.8924-80.4645-11.7499-111.00625-19.75145-13.82543-25.74926-16.29031-35.20507-14.10626-6.15755,1.42078-10.61965,5.74719-15.38419,2.73625-8.71185-5.50621,11.8784-38.10891-17.8301-61.125-29.70916-23.01772-50.94923-5.75684-58.90435-12.06444-7.95511-6.31086-2.342-21.22015-19.4719-26.58266-17.13075-5.36564-26.50207,22.59625-49.467,18.73773-23.88613-4.00878-64.96462-1.89028-68.77134,20.7874-3.80589,22.67442,14.79125,24.86,22.08132,38.83052,7.28944,13.97385-1.34656,58.5308,33.94387,64.45374,35.0694,5.88926,48.93454,2.93261,57.45169,46.6372,8.51617,43.711,49.82287,60.59026,70.7468,54.46627,20.9247-6.124,16.59845,5.74393,6.18546,13.16267-10.41676,7.42039,7.7421,14.97956,23.27078,11.37C545.92494,646.71315,576.007,629.074,593.501,604.02882Z" class="color807dfb svgShape"></path><path fill="none" stroke="#6b67e9" stroke-linecap="round" stroke-linejoin="round" stroke-width="2" d="M600.974 613.67772c-64.59745-97.10907-164.84921-158.23736-244.42931-181.38913M419.28947 456.77335c-.621-5.66415-.06555-29.81378 5.61952-42.85041M403.11016 449.302c-8.26638 2.9774-25.52414 15.27005-29.84974 19.52M483.98337 494.97187c-1.62514-8.45323-4.02384-25.644 6.43525-49.06712M459.49369 478.86677c-8.02541.90992-31.60417 14.5166-41.31307 21.434M529.90223 531.61687c-11.6662 2.26857-22.91391 11.88066-31.03839 17.66957M553.6247 554.6887c-3.6336-10.88937-2.55122-32.62036 1.89012-47.96055" class="colorStroke6b67e9 svgStroke"></path><path fill="none" stroke="#dde2f8" stroke-linecap="round" stroke-linejoin="round" stroke-width="2" d="M339.42444 865.26942c-14.258-22.47971-77.057-93.327-118.0307-126.96912M223.054 734.79274a6.1539 6.1539 0 10-6.84314 5.37528A6.151 6.151 0 00223.054 734.79274zM276.43153 749.62549a5.95857 5.95857 0 10-6.627 5.20446A5.96064 5.96064 0 00276.43153 749.62549zM270.62189 810.70735a6.76369 6.76369 0 10-7.5224 5.90855A6.76416 6.76416 0 00270.62189 810.70735zM321.41483 801.63471a7.82816 7.82816 0 10-8.70627 6.83922A7.82945 7.82945 0 00321.41483 801.63471zM218.76748 755.419a5.108 5.108 0 10-5.681 4.46211A5.10946 5.10946 0 00218.76748 755.419zM218.79707 754.69426c4.63768.273 19.57817.47882 24.35709 2.9246M269.8045 754.83c-.49076 4.08529-1.48061 19.9589 1.50481 30.75572M270.62189 810.70735c3.6488-1.03759 20.66774-.60014 25.96 2.05146M315.34591 808.33349c.27775 4.44446 2.04183 25.74926 3.25516 29.78192" class="colorStrokedde2f8 svgStroke"></path><path fill="#5652cc" d="M457.45987,266.40819c-35.38148-14.11182-63.30662,8.0429-73.99572,51.61654C417.94522,324.38105,459.82653,307.98856,457.45987,266.40819Z" class="color5652cc svgShape"></path><path fill="#ced3f8" d="M297.67,563.19637c-48.8716,8.77885-78.74113-26.81251-81.00022-85.24278C262.358,478.84765,311.55423,510.72484,297.67,563.19637Z" class="colorced3f8 svgShape"></path><path fill="none" stroke="#bbc0e6" stroke-linecap="round" stroke-linejoin="round" stroke-width="2" d="M297.67,563.19637c-13.49486-15.93427-50.93091-50.175-71.57315-74.33821" class="colorStrokebbc0e6 svgStroke"></path><path fill="#807dfb" d="M266.66509,196.53618c9.17727-28.64444-9.80535-49.42628-44.71258-55.45845C218.83451,168.58619,234.04392,200.67737,266.66509,196.53618Z" class="color807dfb svgShape"></path><path fill="#e9edf7" d="M168.95736,507.36114c-22.31688-20.16652-49.07431-11.4362-68.95736,17.8834C123.77854,539.42273,159.28606,538.79056,168.95736,507.36114Z" class="colore9edf7 svgShape"></path><path fill="#dde2f8" d="M581.52107,668.484c2.20955-8.66869-49.24809-75.32383-62.63849-66.31508-10.43032,7.01643-3.22082,18.23305-.28723,22.10126,4.6264,6.09377,16.71162,20.0243,11.6613,22.73524-9.1413,4.90431-35.20752-34.22652-42.14485-43.36619-6.93747-9.14131-22.89642-25.00691-35.54905-23.99155-12.65507,1.01862-17.67038,2.88649-4.64258,18.20592,13.028,15.32287,42.45464,42.29966,27.7561,42.09531-14.69788-.20271-32.66676-26.4548-48.48677-37.71771-15.82081-11.26144-49.76239-27.3322-49.96821-12.77-.18522,13.02388,50.79834,39.28874,42.812,45.35047-6.38819,4.85-17.46032-7.52568-39.54164-20.406-22.08378-12.88017-43.05967-24.812-51.92159-12.39319-7.117,9.97146,8.76383,15.23182,20.58224,22.328,11.821,7.09619,27.90617,17.604,20.671,20.60071-7.23205,2.99964-61.66955-37.2837-76.75521-23.74094-9.98027,8.96083,4.36712,13.8604,17.65519,22.89152,13.28659,9.02965,17.28719,13.19635,14.62514,15.21578-2.66043,2.01959-22.56424-7.251-33.36026-12.63105-10.79683-5.38-28.11835-9.40794-33.48008.47882-5.3609,9.88856,12.82984,16.71977,20.13529,17.684,7.30448.96435,13.85958,4.99373,13.55061,7.1665-.30717,2.17278-24.64284.69936-23.4287,13.35117,1.21332,12.65344,24.6126,11.79143,34.72855,4.114,10.11351-7.67735,24.04648-17.69832,26.8475-14.00571,2.801,3.691-8.91064,12.58168-18.13891,19.58536-9.22746,7.00368-11.29332,11.89671-9.42625,14.35688,6.22537,8.201,23.48069,6.00107,30.22411.88293,6.74424-5.11666,40.80616-38.73,44.94178-33.28131,4.13646,5.44869-9.97144,16.71162-17.4237,22.36792-7.45308,5.65777-24.8449,18.85723-17.90743,27.99706,6.93649,9.13967,34.09786-3.71828,47.627-15.37239,13.53066-11.65411,34.02119-32.19564,37.22289-27.97467,3.20088,4.21622-10.45272,23.44718-19.50313,30.31517-9.05025,6.86945-28.66829,14.55648-20.12892,25.80662,8.53791,11.2487,24.09064,3.04608,41.85909-10.44077,7.42431-5.63555,25.66229-19.772,30.89143-33.5798,5.95563-15.72027,11.50158-22.57715,15.22624-21.37185,7.41793,2.40427.32794,15.54161-6.85524,23.76483-7.184,8.225-31.04622,32.43038-16.47061,41.31308,14.5733,8.88432,28.79922-15.48881,35.49393-24.72426,6.69471-9.23873,27.435-43.81787,35.03263-39.335,7.59908,4.48287-8.19134,19.79281-12.58086,25.06429-4.391,5.27148-9.99057,19.07758-3.61759,19.92065C513.17854,721.60293,577.57947,683.94094,581.52107,668.484Z" class="colordde2f8 svgShape"></path><path fill="#e9edf7" d="M224.33911,210.86114c-34.95906-19.41842-66.9976-.07827-83.94559,43.865C175.44772,265.94833,221.24841,254.47306,224.33911,210.86114Z" class="colore9edf7 svgShape"></path><path fill="none" stroke="#ced3f8" stroke-linecap="round" stroke-linejoin="round" stroke-width="2" d="M224.33911,210.86114c-14.43584,8.62884-51.89037,24.97261-73.91741,38.01153" class="colorStrokeced3f8 svgStroke"></path><path fill="#e9edf7" d="M401.85057,233.34726c-36.62667-46.32512-91.28374-38.157-139.34416,12.12019C303.9161,280.67335,372.87,291.04384,401.85057,233.34726Z" class="colore9edf7 svgShape"></path><path fill="none" stroke="#ced3f8" stroke-linecap="round" stroke-linejoin="round" stroke-width="2" d="M401.85057,233.34726c-24.57909,3.56478-84.91777,4.57131-122.34992,9.83576" class="colorStrokeced3f8 svgStroke"></path><path fill="#fcba06" d="M600.59883,237.648c-15.78109-89.29684-95.64531-117.9676-197.25408-84.87626C433.70307,230.49672,519.39426,294.63429,600.59883,237.648Z" class="colorfcba06 svgShape"></path><path fill="none" stroke="#ffd03e" stroke-linecap="round" stroke-linejoin="round" stroke-width="2" d="M600.59883,237.648c-35.82925-13.04383-118.1569-55.53346-172.608-75.62" class="colorStrokeffd03e svgStroke"></path><path fill="#f8d8d0" d="M863.00962,353.91545c-6.4912-8.45078-22.29926,18.22833-25.13458,24.49833-.07817-4.09723-3.97677-16.39233-6.39067-15.68349-2.85921.847.4167,21.71023-.31927,25.33811-.613,2.55269-.74235,7.10258-1.11426,10.33387-.74235,6.48072,9.69533,6.12483,12.01164,11.86154,0,0,9.83264-11.66684,12.189-15.40016C857.99363,388.90736,871.83637,365.3812,863.00962,353.91545Z" class="colorf8d8d0 svgShape"></path><path fill="#dde2f8" d="M828.17985,399.30989s-43.70456,82.20783-52.97043,87.38024c-13.51238,8.61458-68.74978,18.13254-97.35334,30.56905l9.87728,58.522s97.79551-43.29671,116.64016-60.79545c23.76483-36.58745,37.29792-84.68548,42.65718-107.39194C847.0307,407.59376,836.49576,400.63406,828.17985,399.30989Z" class="colordde2f8 svgShape"></path><path d="M799.03648,509.8795c-7.73638,12.60162-46.64046,27.34332-60.71469,32.02808-14.07128,4.68639-23.00333-17.43417-37.81206-23.97717l-13.78059,51.90067,1.00422,5.95007s97.79551-43.29671,116.64016-60.79545c12.12508-18.67136,21.58405-40.33434,28.65636-60.09609C832.81916,455.22882,806.741,497.32823,799.03648,509.8795Z" style="mix-blend-mode:multiply" fill="url(#a)"></path><rect width="232.233" height="231.381" x="655.487" y="129.655" fill="#dde2f8" transform="rotate(-74.084 771.609 245.346)" class="colordde2f8 svgShape"></rect><rect width="232.233" height="83.674" x="503.999" y="160.31" fill="#f1f1f6" transform="rotate(-74.084 620.115 202.147)" class="colorf1f1f6 svgShape"></rect><path fill="#bbc0e6" d="M742.18672,236.95684a30.58907,30.58907,0,1,1,21.02853,37.804A30.58856,30.58856,0,0,1,742.18672,236.95684Z" class="colorbbc0e6 svgShape"></path><polyline fill="none" stroke="#6b67e9" stroke-linecap="round" stroke-linejoin="round" stroke-width="3" points="761.767 237.808 769.004 250.821 803.912 231.405"></polyline><polygon fill="#bbc0e6" points="858.142 184.227 853.579 158.966 836.378 178.022 842.042 179.638 833.854 208.347 844.293 211.323 852.481 182.614 858.14 184.228 858.142 184.227" class="colorbbc0e6 svgShape"></polygon><polygon fill="#bbc0e6" points="887.445 192.582 882.882 167.323 865.682 186.379 871.345 187.994 863.158 216.703 873.597 219.68 881.782 190.97 887.445 192.584 887.445 192.582" class="colorbbc0e6 svgShape"></polygon><rect width="46.532" height="77.553" x="670.19" y="262.932" fill="#ffffff" transform="rotate(-74.083 693.457 301.709)" class="colorfff svgShape"></rect><line x1="667.763" x2="715.521" y1="301.262" y2="314.881" fill="none" stroke="#bbc0e6" stroke-linecap="round" stroke-linejoin="round" stroke-width="3" class="colorStrokebbc0e6 svgStroke"></line><line x1="671.022" x2="703.454" y1="289.837" y2="299.085" fill="none" stroke="#bbc0e6" stroke-linecap="round" stroke-linejoin="round" stroke-width="3" class="colorStrokebbc0e6 svgStroke"></line><polygon fill="#ffffff" points="791.541 130.286 815.352 137.076 807.391 164.992 797.126 155.85 783.581 158.201 791.541 130.286" class="colorfff svgShape"></polygon><path fill="#f8d8d0" d="M580.509,272.25919c-9.18593-5.39915-13.83326,25.26063-14.10626,32.13663-1.61091-3.76847-9.83576-13.70313-11.80893-12.14192-2.33412,1.85922,8.52827,19.97018,9.20834,23.61.38958,2.59421,1.9779,6.86161,2.84646,9.99383,1.74,6.28847,11.2822,2.04346,15.58295,6.49036,0,0,4.73674-14.50138,5.52061-18.84774C588.98463,306.57742,592.99159,279.5774,580.509,272.25919Z" class="colorf8d8d0 svgShape"></path><path fill="#e7eeff" d="M693.85884,513.77238c-15.30831-6.62278-44.92265-10.49735-66.7877-7.72593l.00164-.00639c-16.70522-4.32967-44.25534-53.55307-46.9326-68.34267-2.73318-15.108,1.408-86.476,5.40242-106.81078,0,0-17.64718-5.26755-22.44618-6.71073,0,0-24.737,93.1173-21.89531,122.25249,2.17277,22.25935,25.76364,75.11161,41.29869,106.1196-16.14335,43.10266-25.07393,104.424-27.036,119.99421,9.69843,2.60713,100.97416,20.17927,100.97416,20.17927C663.167,676.752,736.414,543.18793,693.85884,513.77238Z" class="colore7eeff svgShape"></path><path d="M582.56683,585.5291c6.38574-28.74332,19.35387-28.74332,11.03142-43.08041-8.32065-14.33775-22.90263-14.48537-39.71166-53.62241,8.59039,21.93125,19.87422,46.28115,28.61321,63.72169-14.28674,38.14882-22.92192,90.53973-26.07964,112.88213C556.43291,665.40135,576.18093,614.26052,582.56683,585.5291Z" style="mix-blend-mode:multiply" fill="url(#b)"></path><path fill="#362e94" d="M555.46382,672.54218c-26.60408,37.68765-65.35727,122.5742-78.639,175.6851l.008.01765c-67.99221-12.43013-129.43813,1.92053-169.20587,11.488-1.1718,5.60986-3.82994,18.33214-3.82994,18.33214,25.03078,4.51146,108.86783,23.31934,170.62908,27.91713,14.50613,1.08091,28.626.43272,40.89638-13.44843,34.3094-38.80829,62.10049-67.47741,102.898-134.31464C618.2205,758.21915,578.54055,683.25761,555.46382,672.54218Z" class="color362e94 svgShape"></path><path fill="url(#c)" d="M618.2205,758.21915s-39.67995-74.96154-62.75668-85.677c-1.97317,2.79546-.85891,6.29174-2.95338,9.57565-9.44471,22.38868-8.2649,46.923,1.37615,107.68881,7.8657,49.58747-38.564,102.72715-38.564,102.72715C549.63194,853.7255,577.423,825.05638,618.2205,758.21915Z"></path><path fill="#fcccc0" d="M300.921,858.33128c3.69507.77114,6.706,1.40167,6.706,1.40167l-3.82994,18.33214a46.32771,46.32771,0,0,0-12.63513-.44547C290.32626,872.46944,296.5101,866.48112,300.921,858.33128Z" class="colorfcccc0 svgShape"></path><path fill="#20196f" d="M300.921,858.33128c-4.41093,8.14984-10.59477,14.13816-9.75908,19.28834-2.35881,2.14253-23.499,36.527-26.87954,39.76772-3.46031,3.31745-7.45144,1.8934-6.59564-2.20791,1.2524-5.9947,13.73746-54.90374,13.73746-54.90374-.87738-1.22755-1.79285-2.26857-1.79285-2.26857l2.35717-11.2804C278.52207,844.57945,295.83559,849.14847,300.921,858.33128Z" class="color20196f svgShape"></path><path fill="#fcccc0" d="M803.0979,1013.04377c-1.63166-3.40539-5.09263-11.78832-5.09263-11.78832l16.96711-3.552a69.99735,69.99735,0,0,0,5.31938,13.80612C816.71243,1015.30106,812.25033,1011.59094,803.0979,1013.04377Z" class="colorfcccc0 svgShape"></path><path fill="#20196f" d="M799.63514,1005.1493c8.77577,2.96776,15.72354,8.05092,20.65662,6.36024,2.51117,1.96041,39.97191,16.98951,43.7396,19.77205,3.8523,2.84973,3.12434,7.02607-1.06,6.876-6.124-.22362-56.44107-4.26576-56.44107-4.26576-1.06,1.07437-1.93165,2.15037-1.93165,2.15037l-11.51368-.41669C789.8633,1029.54791,791.44053,1011.71062,799.63514,1005.1493Z" class="color20196f svgShape"></path><path fill="#423eaf" d="M766.729,816.22c-21.61917-29.32679-49.89559-65.28224-110.291-123.49851,0,0-78.44655-15.38988-100.97416-20.17927-8.937,25.58168-10.66753,53.59952,6.52159,81.52629,22.25771,36.15963,87.3835,75.17536,161.40946,105.27818,12.74925,52.24234,49.29863,109.1145,74.6104,141.9088,5.60023-1.22445,16.96711-3.552,16.96711-3.552C808.85475,973.01578,787.5756,899.23879,766.729,816.22Z" class="color423eaf svgShape"></path><path fill="#5652cc" d="M808.73819,998.9885c-1.76735-5.4902-4.95058-15.79219-9.02638-29.00276-20.698-67.03357-43.23195-138.97146-48.644-143.96354-.71521-.66095-2.393-2.14089-4.8515-4.304-96.7867-85.21237-121.24285-120.90593-124.55228-135.852-.73123-.14372-1.46557-.2905-2.20629-.4342.02878.139.05428.27775.08305.41834,3.00765,15.0098,27.1939,51.03375,125.31049,137.41792,2.441,2.14727,4.106,3.61611,4.81818,4.27049,5.45667,5.03527,34.23744,98.257,48.06759,143.05527,4.02628,13.03811,7.176,23.24594,8.96721,28.81756C807.39866,999.26789,808.082,999.12419,808.73819,998.9885Z" class="color5652cc svgShape"></path><path fill="#f8d8d0" d="M637.0555,472.49131c.98168,6.1551,2.27968,23.55084-1.88555,33.11605,5.46471,3.73021,39.8364,17.26169,39.8364,2.68118-4.85167-2.16067-8.95936-7.87125-6.84887-13.14749,3.28082-8.20669,12.07719,2.19748,17.59143-10.52628,6.43854-14.83666,7.50653-43.68135.316-51.44733-8.0429-8.69435-23.843-19.108-44.23131-6.13283C625.20178,437.61761,635.06141,459.9847,637.0555,472.49131Z" class="colorf8d8d0 svgShape"></path><path fill="#20196f" d="M653.68405,456.649c4.72563-.09907,1.83274-8.724,3.62559-13.15875,2.16476-5.34178,18.7871-9.85178,22.37754-9.622,13.36392.85255,21.038-16.67251,12.27516-23.57875-8.76939-6.9048-16.153,3.30942-22.57077,1.42159-7.47777-2.20072-6.49592-11.26781-17.4461-9.92683-10.11187,1.23574-5.17078,10.51028-11.55831,12.41495-6.579,1.96516-16.662-6.49755-24.40662,4.20659-5.74227,7.94318,6.74032,16.53046,6.089,25.16336-.41032,5.38964-4.451,27.95717,10.26832,32.843,15.11361,5.01776,8.4086-4.90662,7.8737-20.0426-.22036-6.13366,1.63641-10.67,4.67757-10.40417C649.41844,446.36053,646.92624,456.80131,653.68405,456.649Z" class="color20196f svgShape"></path><path fill="#fcba06" d="M631.02075,502.07364c-8.99434-1.03056-9.079,2.16885-3.94961,3.97281,5.95171,2.09447,12.521,20.10734-1.42879,34.05553-11.45448,11.45532-28.67876,26.90977-43.14255,12.446-14.464-14.46395-27.036,100.88637-27.036,119.99421,0,14.41293,100.2047,30.85154,107.03425,20.17927,10.39616-16.24389,48.24009-117.84073,48.24009-140.23969,0-16.64866-1.13976-36.5716-20.492-42.83213C670.89392,503.38832,631.02075,502.07364,631.02075,502.07364Z" class="colorfcba06 svgShape"></path><path fill="#ffd03e" d="M631.26825,505.5954c-2.0451-2.286,3.20251-14.58686,6.528-12.2377,4.59452,3.25123,23.00007,4.91,33.17275,3.624,2.35472-.29769,2.51444,6.35713,4.03739,11.30688,1.52622,4.95074-2.87687,6.98292-5.20119,7.56326C667.48379,516.43215,642.402,518.035,631.26825,505.5954Z" class="colorffd03e svgShape"></path><path fill="none" stroke="#fff" stroke-linecap="round" stroke-linejoin="round" d="M665.26,497.3825l2.56708,18.71354c17.86755,8.35351,23.28746,44.76865,11.761,76.78625C669.406,621.1684,639.44373,695.967,639.44373,695.967" class="colorStrokefff svgStroke"></path><path fill="none" stroke="#ffd03e" stroke-linecap="round" stroke-linejoin="round" d="M597.864,614.741l39.98156,12.16824c-4.636,12.74761-10.43114,39.98156-33.22211,34.1881C581.83251,655.30207,592.26363,629.03246,597.864,614.741Z" class="colorStrokeffd03e svgStroke"></path><path fill="#fcba06" d="M614.30752,447.53641c-12.32143-16.48828-14.796-29.0899-3.624-42.54487,11.17528-13.45481,25.11071-12.30377,37.61409-6.381C643.8084,404.90865,614.30752,447.53641,614.30752,447.53641Z" class="colorfcba06 svgShape"></path><path fill="#ffd03e" d="M619.61414,442.747c7.87371-11.11382,54.7808-63.99322,56.37405-66.55785,8.81877-14.18767-23.29383,11.31719-36.66737,29.76834a414.7029,414.7029,0,0,0-23.942,36.77349C611.94006,448.58528,614.66523,449.73632,619.61414,442.747Z" class="colorffd03e svgShape"></path><path fill="#fcba06" d="M146.60778,995.49861,129.224,988.59072a4.08837,4.08837,0,0,0-4.051.59243l-14.677,11.60132a4.0942,4.0942,0,0,0-1.51265,3.80444l2.71159,18.51244a4.09227,4.09227,0,0,0,2.53831,3.21054l17.38381,6.90788a4.09606,4.09606,0,0,0,4.051-.59081l14.677-11.60294a4.09213,4.09213,0,0,0,1.51183-3.80443l-2.70914-18.51246A4.09478,4.09478,0,0,0,146.60778,995.49861Z" class="colorfcba06 svgShape"></path><path fill="#ffd03e" d="M320.55347,46.9044l-5.98358,28.48243a4.093,4.093,0,0,0,5.28112,4.731l27.65785-9.05662a4.09289,4.09289,0,0,0,1.4592-6.93911l-21.6759-19.42564A4.09366,4.09366,0,0,0,320.55347,46.9044Z" class="colorffd03e svgShape"></path><path fill="#423eaf" d="M993.887,527.9952l-25.3198,14.349a4.09215,4.09215,0,0,0-.05574,7.09065l25.08668,14.75281a4.09415,4.09415,0,0,0,6.17027-3.49628l.23149-29.10168A4.09253,4.09253,0,0,0,993.887,527.9952Z" class="color423eaf svgShape"></path></g></svg></g></svg>